<?xml version="1.0" encoding="UTF-8"?>
<svg version="1.1" xmlns="http://www.w3.org/2000/svg" width="225" height="225">
<path d="M0 0 C3.32487838 4.26000043 3.30056475 8.42448266 3.5625 13.625 C3.6049585 14.43686768 3.64741699 15.24873535 3.69116211 16.08520508 C4.13484184 25.68636306 4.08294689 35.2893278 4.03076172 44.89828491 C4.02216629 46.49039071 4.02216629 46.49039071 4.01339722 48.11466026 C4.00897614 48.92244738 4.00455505 49.73023449 4 50.5625 C22.43984254 51.55927643 40.84975866 51.69886582 59.30931473 51.66389394 C63.25300157 51.65752853 67.19668967 51.6570464 71.14038086 51.65586853 C78.5663172 51.65279328 85.99223834 51.6446327 93.41816807 51.63451904 C101.89014536 51.62323779 110.36212348 51.61781757 118.83410645 51.61282361 C136.22274633 51.60244567 153.61137155 51.58492215 171 51.5625 C171.00586624 50.99731155 171.01173248 50.43212311 171.01777649 49.84980774 C171.08177072 43.9608231 171.16620584 38.0723819 171.26245117 32.18383789 C171.29568055 29.98697073 171.32371866 27.7900186 171.34643555 25.59301758 C171.38001754 22.43273757 171.43233634 19.27323479 171.48828125 16.11328125 C171.49467117 15.13289383 171.5010611 14.15250641 171.50764465 13.14241028 C171.64764133 6.63151419 172.53210703 3.03039297 177.25 -1.6875 C181.56149295 -4.43117733 185.15981948 -4.84233971 190.125 -3.75 C194.47309377 -1.76500067 197.30920773 -0.17453346 199.12402344 4.38891602 C200.59304294 10.02820528 200.28502068 15.86758173 200.265625 21.65234375 C200.26753845 22.91083633 200.2694519 24.16932892 200.27142334 25.46595764 C200.27278132 28.12124536 200.27012614 30.77616206 200.26074219 33.43139648 C200.2493601 36.81482459 200.2559085 40.19793486 200.26788712 43.58135128 C200.27690251 46.83419305 200.27056697 50.08699781 200.265625 53.33984375 C200.26967346 54.54527328 200.27372192 55.75070282 200.27789307 56.99266052 C200.19489012 71.97568705 200.19489012 71.97568705 196.68511963 76.11216736 C191.41147835 80.80343037 186.6893866 80.71058536 179.93534851 80.70294189 C179.11607575 80.70591302 178.29680298 80.70888414 177.45270377 80.7119453 C174.70372905 80.72062629 171.9547979 80.72214003 169.20581055 80.72363281 C167.23630683 80.72826138 165.26680402 80.73328609 163.29730225 80.73867798 C157.94393439 80.75179958 152.59057907 80.75824639 147.23719764 80.76268864 C143.89295581 80.76561953 140.54871741 80.76972436 137.20447731 80.77419281 C126.74200128 80.78786663 116.27953308 80.79753406 105.81704873 80.8013947 C93.73783124 80.80587638 81.65872686 80.82342989 69.57954377 80.8523953 C60.24354752 80.87400598 50.90758311 80.88409864 41.57156211 80.88543582 C35.9950738 80.88648421 30.41869183 80.89239952 24.84222984 80.91025543 C19.5965201 80.92672561 14.35099676 80.92889668 9.10527039 80.92011642 C7.18119622 80.91934551 5.25711208 80.92369593 3.33306313 80.93357468 C0.7036876 80.94628191 -1.92502649 80.94042409 -4.55439758 80.92999268 C-5.31335982 80.93804908 -6.07232206 80.94610548 -6.85428315 80.95440602 C-12.92120012 80.89822533 -17.51801232 79.52196396 -22.375 75.6875 C-25.36513161 71.7773279 -25.13012533 67.2811799 -25.16113281 62.50634766 C-25.17074036 61.30805328 -25.1803479 60.10975891 -25.19024658 58.87515259 C-25.19449646 57.58861786 -25.19874634 56.30208313 -25.203125 54.9765625 C-25.20595238 54.31689861 -25.20877975 53.65723473 -25.21169281 52.97758102 C-25.22664244 49.48765416 -25.23589896 45.99776819 -25.24023438 42.5078125 C-25.24571747 38.91790749 -25.26975373 35.32838204 -25.29820633 31.73859596 C-25.31690059 28.96406992 -25.32204186 26.18963419 -25.32357025 23.41505051 C-25.32803735 21.45256905 -25.3466471 19.49013608 -25.36553955 17.52774048 C-25.34633333 9.81863215 -25.32632544 3.88882544 -19.625 -1.8125 C-13.08344618 -5.86203332 -5.87879149 -4.77651809 0 0 Z " fill="#FEFEFE" transform="translate(25,144.4375)"/>
<path d="M0 0 C5.35827199 5.83106069 5.56842676 11.27554109 5.55737305 18.81591797 C5.57266052 20.38268028 5.57266052 20.38268028 5.58825684 21.98109436 C5.61837247 25.42234674 5.62765085 28.86332068 5.63671875 32.3046875 C5.65356644 34.69508793 5.6717168 37.08547951 5.69111633 39.4758606 C5.73861233 45.75908644 5.76842451 52.04227638 5.79455566 58.32562256 C5.82436302 64.74059133 5.87089282 71.15543641 5.91601562 77.5703125 C6.00204432 90.1509744 6.06995979 102.73166632 6.125 115.3125 C7.23717713 114.20202114 8.34910847 113.09129613 9.4609375 111.98046875 C10.0801709 111.36196045 10.6994043 110.74345215 11.33740234 110.10620117 C12.81721778 108.62133311 14.2851968 107.12467946 15.75 105.625 C18.125 103.3125 18.125 103.3125 20.875 101.125 C23.19987388 99.50940923 23.19987388 99.50940923 24.125 97.3125 C24.785 97.3125 25.445 97.3125 26.125 97.3125 C26.125 96.6525 26.125 95.9925 26.125 95.3125 C27.95012668 93.47315155 29.92638212 91.86182223 31.91015625 90.1953125 C33.28820746 89.02384745 34.63657856 87.81528542 35.93359375 86.5546875 C39.44881872 83.19371028 42.2015399 81.39730613 47.140625 81.1484375 C52.11902913 81.56003784 55.23846563 83.30931637 58.5 87 C60.44230225 90.95930843 61.33243997 93.91564478 61.125 98.3125 C58.03811702 106.99359096 51.16090423 112.85706904 44.765625 119.203125 C43.53438899 120.43705982 42.30374692 121.67158753 41.07366943 122.90667725 C38.50119783 125.48502552 35.92168435 128.05605328 33.33691406 130.62207031 C30.03714841 133.89904809 26.7556697 137.19365967 23.47928238 140.49399185 C20.94365452 143.04412705 18.39851041 145.58459313 15.85045624 148.12230682 C14.63717427 149.33293516 13.42681584 150.54650127 12.21955109 151.76313019 C-1.691728 165.75858097 -1.691728 165.75858097 -8.840271 166.52252197 C-19.7182184 166.06798255 -28.18591979 154.32834151 -35.36328125 147.16015625 C-36.55521161 145.97466476 -37.74728672 144.78931879 -38.9394989 143.60411072 C-41.42488603 141.13063718 -43.90616811 138.653128 -46.38500977 136.1730957 C-49.55338093 133.00452063 -52.7353331 129.8499714 -55.92092609 126.69872379 C-58.38224391 124.25968501 -60.83437547 121.81156737 -63.28404808 119.36083794 C-64.45335509 118.19388146 -65.62588467 117.03014434 -66.80175209 115.86979866 C-68.44565894 114.24559024 -70.07628911 112.60906991 -71.7043457 110.96899414 C-72.63285843 110.04333145 -73.56137115 109.11766876 -74.51802063 108.16395569 C-77.50586232 104.54928757 -79.62867675 100.86082598 -80.08984375 96.08984375 C-79.37173375 91.32604359 -78.14837153 88.01657831 -74.875 84.3125 C-70.57887064 81.75134596 -66.92421984 80.65333664 -61.90625 81.55078125 C-57.78728225 83.09539416 -54.96595676 86.285454 -51.875 89.3125 C-50.31836892 90.69414067 -48.75580654 92.06912657 -47.1875 93.4375 C-38.35365191 101.32704019 -38.35365191 101.32704019 -36.8125 104.5 C-36.02557037 106.46408142 -36.02557037 106.46408142 -34.05078125 107.19921875 C-31.57977676 108.46355677 -30.04505054 109.94360136 -28.125 111.9375 C-27.20460938 112.88496094 -27.20460938 112.88496094 -26.265625 113.8515625 C-25.80671875 114.33367187 -25.3478125 114.81578125 -24.875 115.3125 C-24.86913376 114.00006821 -24.86326752 112.68763641 -24.85722351 111.33543396 C-24.79998682 98.96121573 -24.72721992 86.58717308 -24.63928509 74.21313381 C-24.59457603 67.85165615 -24.55532082 61.49024262 -24.52856445 55.12866211 C-24.50253722 48.98828607 -24.46213825 42.84815672 -24.41181374 36.70793343 C-24.39514123 34.36644626 -24.38362936 32.02491642 -24.37738609 29.68337822 C-24.36774952 26.40120516 -24.33969419 23.11966379 -24.30737305 19.83764648 C-24.30880814 18.87163513 -24.31024323 17.90562378 -24.3117218 16.91033936 C-24.21739715 10.12816976 -23.50471692 4.87478828 -18.4375 -0.0625 C-12.64826607 -3.73372151 -5.86356846 -3.44165975 0 0 Z " fill="#FEFEFE" transform="translate(121.875,2.6875)"/>
</svg>
